<svg xmlns="http://www.w3.org/2000/svg" width="25.84" height="20.509" viewBox="0 0 25.84 20.509">
  <g id="food-delivered" transform="translate(-2890 -14382)">
    <path id="Subtraction_3" data-name="Subtraction 3" d="M15.207,18H13.5L12,5h2.23L13.1.46,14.84,0l1.25,5H20l-.707,6.132A5.507,5.507,0,0,0,15.207,18ZM8,18H3a3,3,0,0,1-3-3H11A3,3,0,0,1,8,18Zm2-4H1a1,1,0,0,1,0-2H6l1.5,1.5L9,12h1a1,1,0,0,1,0,2Zm1-3H0A3,3,0,0,1,3,8H8a3,3,0,0,1,3,3Z" transform="translate(2890 14382)"/>
    <g id="Group_110" data-name="Group 110" transform="translate(15 -5)">
      <path id="Path_19" data-name="Path 19" d="M.218.128,8.938,0V1.658H0Z" transform="translate(2893.347 14406.127) rotate(-45)"/>
      <path id="Path_18" data-name="Path 18" d="M0,.056,4.026,0V1.563L.04,1.507Z" transform="translate(2894.372 14407.509) rotate(-135)"/>
    </g>
  </g>
</svg>
