<svg xmlns="http://www.w3.org/2000/svg" width="25.088" height="18" viewBox="0 0 25.088 18">
  <g id="food-on-deliver" transform="translate(-2884.912 -14382)">
    <path id="Path_15" data-name="Path 15" d="M2885.913,14382.355h8v1.7h-8Z" transform="translate(1 5)"/>
    <path id="Path_16" data-name="Path 16" d="M2885.912,14382.355h4.6s-.492.409-.492,1.7c-.008.023-4.111,0-4.111,0Z" transform="translate(-1 8)"/>
    <path id="Path_17" data-name="Path 17" d="M2885.913,14382.355H2890v1.7h-4.087Z" transform="translate(-1 11)"/>
    <g id="Group_109" data-name="Group 109">
      <path id="Subtraction_2" data-name="Subtraction 2" d="M13.5,18,12,5h2.23L13.1.46,14.84,0l1.25,5H20L18.5,18h-5M3,8H8a3,3,0,0,1,3,3H0A3,3,0,0,1,3,8m8,7a3,3,0,0,1-3,3H3a3,3,0,0,1-3-3H11M1,12H6l1.5,1.5L9,12h1a1,1,0,0,1,0,2H1a1,1,0,0,1,0-2Z" transform="translate(2890 14382)"/>
    </g>
  </g>
</svg>
